<svg width="33" height="33" viewBox="0 0 33 33" fill="none" xmlns="http://www.w3.org/2000/svg">
<circle cx="16.4996" cy="16.4996" r="15.9996" fill="url(#paint0_linear_80_1645)" fill-opacity="0.5" stroke="white"/>
<mask id="mask0_80_1645" style="mask-type:alpha" maskUnits="userSpaceOnUse" x="9" y="6" width="15" height="27">
<path d="M13.3193 21.4492V32.6689C13.3193 32.8512 13.467 32.9989 13.6493 32.9989H18.2691C18.4514 32.9989 18.5991 32.8512 18.5991 32.6689V21.4492C18.5991 21.267 18.7469 21.1192 18.9291 21.1192H22.229C22.4113 21.1192 22.559 20.9715 22.559 20.7892V16.8293C22.559 16.6471 22.4113 16.4993 22.229 16.4993H18.9291C18.7469 16.4993 18.5991 16.3518 18.5991 16.1696V13.1994C18.5991 11.8795 20.2491 11.2195 20.9091 11.2195H22.889C23.0713 11.2195 23.219 11.0717 23.219 10.8895V6.9296C23.219 6.74735 23.0713 6.59961 22.8891 6.59961H18.5991C15.4312 6.59961 13.3193 9.89952 13.3193 11.8795V16.1694C13.3193 16.3516 13.1715 16.4993 12.9893 16.4993H9.68937C9.50712 16.4993 9.35938 16.6471 9.35938 16.8293V20.7892C9.35938 20.9715 9.50712 21.1192 9.68937 21.1192H12.9893C13.1715 21.1192 13.3193 21.267 13.3193 21.4492Z" fill="black"/>
</mask>
<g mask="url(#mask0_80_1645)">
<rect x="9.35938" y="6.59961" width="14.0246" height="26.3993" fill="white"/>
</g>
<defs>
<linearGradient id="paint0_linear_80_1645" x1="0" y1="0" x2="20.1746" y2="39.5422" gradientUnits="userSpaceOnUse">
<stop stop-color="white" stop-opacity="0.4"/>
<stop offset="1" stop-color="white" stop-opacity="0"/>
</linearGradient>
</defs>
</svg>
