<svg width="33" height="33" viewBox="0 0 33 33" fill="none" xmlns="http://www.w3.org/2000/svg">
<circle cx="16.4996" cy="16.5005" r="15.9996" fill="url(#paint0_linear_80_1653)" fill-opacity="0.5" stroke="white"/>
<path d="M7.45111 16.5715L7.4585 16.5687L7.4658 16.5656C12.6216 14.3896 16.0554 12.9568 17.7709 12.2655C20.2282 11.2754 21.7006 10.6991 22.6403 10.3687C23.5882 10.0355 23.9436 9.97201 24.1891 9.96782C24.2241 9.96722 24.3016 9.97171 24.3858 9.99121C24.4737 10.0115 24.5302 10.0393 24.5568 10.0602C24.5869 10.0838 24.6076 10.1189 24.6251 10.218C24.6435 10.322 24.667 10.5778 24.6494 10.7565C24.3859 13.439 23.2388 19.991 22.6526 23.0267C22.416 24.2522 22.0123 24.3689 21.8907 24.3797C21.52 24.4128 21.1734 24.2997 20.7696 24.0699C20.566 23.954 20.3586 23.8148 20.1301 23.6576C20.0931 23.6321 20.0555 23.6061 20.0173 23.5798C19.8247 23.4467 19.6177 23.3037 19.4018 23.1666C18.6274 22.6749 18.0216 22.276 17.4187 21.8784L17.3385 21.8255C16.7623 21.4453 16.1817 21.0623 15.4564 20.5993C15.0449 20.3366 14.874 20.1455 14.8105 20.0278C14.768 19.9489 14.7686 19.9016 14.8054 19.8203C14.8587 19.7025 14.9792 19.5525 15.1944 19.3404C15.2861 19.2501 15.3852 19.1575 15.4938 19.0561C15.5077 19.0431 15.5218 19.03 15.536 19.0167C15.659 18.9017 15.7914 18.7772 15.9228 18.6449C15.9779 18.5895 16.2548 18.3402 16.6542 17.9807C17.1234 17.5583 17.7615 16.9839 18.4068 16.3935C18.995 15.8554 19.5816 15.3107 20.0278 14.8764C20.2503 14.6599 20.443 14.466 20.5849 14.3117C20.6553 14.2352 20.7194 14.1618 20.77 14.0964C20.7951 14.0639 20.8221 14.0268 20.8461 13.9877C20.8648 13.9572 20.9052 13.8885 20.9268 13.7996C20.9485 13.71 20.9551 13.5908 20.9368 13.4713C20.9184 13.3508 20.8623 13.153 20.6848 13.0002C20.5118 12.8512 20.3155 12.8204 20.1818 12.8194C20.057 12.8185 19.9431 12.8436 19.8891 12.8555L19.885 12.8564C19.8056 12.8738 19.7324 12.9117 19.7111 12.9227C19.7099 12.9233 19.7089 12.9239 19.708 12.9243C19.6698 12.9439 19.6249 12.9687 19.5758 12.9969C19.4768 13.0537 19.3429 13.1341 19.1763 13.2367C18.8422 13.4423 18.3632 13.7449 17.7409 14.1434C16.4957 14.9407 14.6683 16.1272 12.2597 17.7022L12.2597 17.7022L12.2564 17.7044C11.5971 18.143 11.0585 18.3161 10.6261 18.307C10.3692 18.3016 9.95352 18.2273 9.46105 18.1076C8.9798 17.9907 8.46171 17.8399 8.01697 17.6998C7.86645 17.6524 7.72596 17.6096 7.59504 17.5697C7.21122 17.4526 6.90975 17.3607 6.67968 17.2528C6.55212 17.1929 6.489 17.1461 6.46065 17.1186C6.47908 17.0954 6.52011 17.0516 6.60665 16.9893C6.77598 16.8675 7.0499 16.7261 7.45111 16.5715Z" fill="white" stroke="white"/>
<defs>
<linearGradient id="paint0_linear_80_1653" x1="0" y1="0.000976562" x2="20.1746" y2="39.5432" gradientUnits="userSpaceOnUse">
<stop stop-color="white" stop-opacity="0.4"/>
<stop offset="1" stop-color="white" stop-opacity="0"/>
</linearGradient>
</defs>
</svg>
