<svg width="33" height="33" viewBox="0 0 33 33" fill="none" xmlns="http://www.w3.org/2000/svg">
<circle cx="16.4996" cy="16.4996" r="15.9996" fill="url(#paint0_linear_80_1657)" fill-opacity="0.5" stroke="white"/>
<path d="M24.2484 12.4696C24.2484 12.6501 24.2484 12.8305 24.2484 12.9852C24.2484 18.3218 20.175 24.4834 12.7502 24.4834C10.4558 24.4834 8.34175 23.8131 6.53711 22.6787C6.84648 22.7045 7.18162 22.7303 7.49099 22.7303C9.37297 22.7303 11.126 22.0858 12.5182 21.003C10.7393 20.9772 9.24407 19.7913 8.75424 18.1929C9.01204 18.2445 9.24407 18.2702 9.52765 18.2702C9.88858 18.2702 10.2495 18.2187 10.5847 18.1156C8.72846 17.7546 7.33631 16.1305 7.33631 14.1711C7.33631 14.1454 7.33631 14.1454 7.33631 14.1196C7.8777 14.4289 8.49643 14.6094 9.16673 14.6352C8.08394 13.9133 7.36209 12.6759 7.36209 11.2579C7.36209 10.5103 7.56833 9.81422 7.90348 9.22127C9.88858 11.6704 12.8791 13.2688 16.2306 13.4493C16.1533 13.1657 16.1275 12.8305 16.1275 12.5212C16.1275 10.2783 17.9321 8.47363 20.175 8.47363C21.3352 8.47363 22.3922 8.96346 23.114 9.73688C24.0421 9.55642 24.8929 9.22127 25.6921 8.75722C25.3827 9.7111 24.7382 10.4845 23.9132 11.0001C24.7382 10.897 25.5116 10.6908 26.2335 10.3556C25.7178 11.1806 25.0476 11.9024 24.2484 12.4696Z" fill="white"/>
<defs>
<linearGradient id="paint0_linear_80_1657" x1="0" y1="0" x2="20.1746" y2="39.5422" gradientUnits="userSpaceOnUse">
<stop stop-color="white" stop-opacity="0.4"/>
<stop offset="1" stop-color="white" stop-opacity="0"/>
</linearGradient>
</defs>
</svg>
