<svg width="33" height="33" viewBox="0 0 33 33" fill="none" xmlns="http://www.w3.org/2000/svg">
<path d="M24.2431 10.0637C22.9059 9.48413 21.472 9.05712 19.9727 8.81255C19.9454 8.80783 19.9181 8.81963 19.904 8.84322C19.7196 9.15305 19.5153 9.55726 19.3723 9.87497C17.7597 9.64692 16.1554 9.64692 14.5759 9.87497C14.4328 9.5502 14.2211 9.15305 14.0358 8.84322C14.0218 8.82041 13.9945 8.80862 13.9672 8.81255C12.4687 9.05634 11.0348 9.48335 9.69672 10.0637C9.68514 10.0684 9.67521 10.0763 9.66862 10.0865C6.9487 13.9249 6.2036 17.669 6.56912 21.3667C6.57078 21.3848 6.58153 21.4021 6.59641 21.4131C8.39094 22.6579 10.1292 23.4137 11.8353 23.9146C11.8626 23.9225 11.8915 23.913 11.9089 23.8918C12.3124 23.3712 12.6722 22.8223 12.9806 22.2451C12.9988 22.2113 12.9814 22.1711 12.9442 22.1578C12.3736 21.9533 11.8303 21.704 11.3077 21.4209C11.2663 21.3981 11.263 21.3423 11.301 21.3155C11.411 21.2377 11.521 21.1567 11.6261 21.0749C11.6451 21.06 11.6715 21.0568 11.6939 21.0662C15.1274 22.5471 18.8447 22.5471 22.2377 21.0662C22.2601 21.056 22.2865 21.0592 22.3064 21.0741C22.4114 21.1559 22.5214 21.2377 22.6322 21.3155C22.6702 21.3423 22.6678 21.3981 22.6264 21.4209C22.1038 21.7095 21.5604 21.9533 20.989 22.157C20.9518 22.1704 20.9353 22.2113 20.9535 22.2451C21.2685 22.8215 21.6283 23.3704 22.0244 23.891C22.0409 23.913 22.0707 23.9225 22.098 23.9146C23.8123 23.4137 25.5506 22.6579 27.3451 21.4131C27.3608 21.4021 27.3707 21.3855 27.3724 21.3674C27.8099 17.0926 26.6397 13.3792 24.2704 10.0873C24.2646 10.0763 24.2547 10.0684 24.2431 10.0637ZM13.4934 19.1152C12.4596 19.1152 11.6079 18.2187 11.6079 17.1177C11.6079 16.0168 12.4431 15.1203 13.4934 15.1203C14.5519 15.1203 15.3954 16.0246 15.3788 17.1177C15.3788 18.2187 14.5436 19.1152 13.4934 19.1152ZM20.4647 19.1152C19.431 19.1152 18.5792 18.2187 18.5792 17.1177C18.5792 16.0168 19.4144 15.1203 20.4647 15.1203C21.5232 15.1203 22.3667 16.0246 22.3502 17.1177C22.3502 18.2187 21.5232 19.1152 20.4647 19.1152Z" fill="white"/>
<circle cx="16.4996" cy="16.4996" r="15.9996" fill="url(#paint0_linear_80_1662)" fill-opacity="0.5" stroke="white"/>
<defs>
<linearGradient id="paint0_linear_80_1662" x1="0" y1="0" x2="20.1746" y2="39.5422" gradientUnits="userSpaceOnUse">
<stop stop-color="white" stop-opacity="0.4"/>
<stop offset="1" stop-color="white" stop-opacity="0"/>
</linearGradient>
</defs>
</svg>
