<svg width="33" height="33" viewBox="0 0 33 33" fill="none" xmlns="http://www.w3.org/2000/svg">
<circle cx="16.4639" cy="16.4639" r="15.9639" fill="url(#paint0_linear_80_1642)" fill-opacity="0.5" stroke="white"/>
<g clip-path="url(#clip0_80_1642)">
<path d="M21.1349 13.5409C22.5997 14.5917 24.3941 15.21 26.3322 15.21V11.4672C25.9654 11.4673 25.5996 11.4289 25.2408 11.3526V14.2987C23.3028 14.2987 21.5086 13.6804 20.0435 12.6297V20.2675C20.0435 24.0883 16.9571 27.1855 13.15 27.1855C11.7296 27.1855 10.4093 26.7545 9.3125 26.0154C10.5643 27.2999 12.31 28.0967 14.2413 28.0967C18.0485 28.0967 21.1351 24.9995 21.1351 21.1785V13.5409H21.1349V13.5409ZM22.4814 9.76491C21.7328 8.94416 21.2413 7.8835 21.1349 6.71089V6.22949H20.1006C20.361 7.71988 21.249 8.99318 22.4814 9.76491ZM11.7204 23.0834C11.3022 22.5331 11.0762 21.8598 11.0772 21.1676C11.0772 19.4201 12.4889 18.0032 14.2305 18.0032C14.5551 18.0031 14.8778 18.053 15.1871 18.1515V14.3251C14.8256 14.2754 14.4608 14.2543 14.0961 14.262V17.2403C13.7865 17.1418 13.4637 17.0918 13.1391 17.0921C11.3974 17.0921 9.9858 18.5088 9.9858 20.2566C9.9858 21.4923 10.6914 22.5622 11.7204 23.0834Z" fill="#C4C4C4"/>
<path d="M20.0433 12.6296C21.5085 13.6803 23.3027 14.2986 25.2406 14.2986V11.3525C24.1589 11.1213 23.2012 10.554 22.4812 9.76491C21.2488 8.9931 20.3608 7.7198 20.1005 6.22949H17.3836V21.1784C17.3774 22.9211 15.9682 24.3322 14.2302 24.3322C13.2061 24.3322 12.2963 23.8423 11.7201 23.0834C10.6911 22.5622 9.98551 21.4923 9.98551 20.2566C9.98551 18.5091 11.3971 17.0922 13.1388 17.0922C13.4725 17.0922 13.7941 17.1443 14.0958 17.2404V14.2621C10.3556 14.3397 7.34766 17.4066 7.34766 21.1785C7.34766 23.0614 8.09671 24.7683 9.31244 26.0155C10.4092 26.7545 11.7295 27.1856 13.15 27.1856C16.9571 27.1856 20.0434 24.0883 20.0434 20.2675V12.6296H20.0433Z" fill="white"/>
</g>
<defs>
<linearGradient id="paint0_linear_80_1642" x1="0" y1="0" x2="20.131" y2="39.4569" gradientUnits="userSpaceOnUse">
<stop stop-color="white" stop-opacity="0.4"/>
<stop offset="1" stop-color="white" stop-opacity="0"/>
</linearGradient>
<clipPath id="clip0_80_1642">
<rect width="23.7274" height="23.7274" fill="white" transform="translate(4.35742 4.84375)"/>
</clipPath>
</defs>
</svg>
